<mxfile host="app.diagrams.net" modified="2023-10-11T10:07:02.591Z" agent="Mozilla/5.0 (Windows NT 10.0; Win64; x64) AppleWebKit/537.36 (KHTML, like Gecko) Chrome/117.0.0.0 Safari/537.36" version="22.0.4" etag="NL9E0wiMaC_Kzlb0mBnS" type="github">
  <diagram name="PÃ¡gina-1" id="DGzOk_QKriaOAcsq6dC8">
    <mxGraphModel>
      <root>
        <mxCell id="0" />
        <mxCell id="1" parent="0" />
      </root>
    </mxGraphModel>
  </diagram>
</mxfile>
